# xmcd
#
# Track frame offsets: 
#        150
#        15817
#        35214
#        47273
#        68533
#        94659
#        112470
#        128993
#        150162
#        170509
#        199655
#        213196
#        233219
#        253096
#        265670
#        273311
#
# Disc length: 3852 seconds
#
# Revision: 0
# Processed by: cddbd v1.5.2PL0 Copyright (c) Steve Scherf et al.
# Submitted via: ExactAudioCopy v0.99pb3
#
DISCID=d10f0a10
DTITLE=Solomon Burke - Montreux Jazz Festival July 04, 2005
DYEAR=2005
DGENRE=Blues
TTITLE0=I Need Your Love In My Life
TTITLE1=Always Keep A Diamond In Your Mind
TTITLE2=Cry To Me
TTITLE3=Georgia On My Mind
TTITLE4=Got To Get You Off Of My Mind
TTITLE5=Only You
TTITLE6=Proud Mary
TTITLE7=Don't Give Up On Me
TTITLE8=Soul Seraching
TTITLE9=Try A Little Tenderness
TTITLE10=I Will Survive
TTITLE11=Wonderful Word
TTITLE12=Soul Medley (If You Need Me>?>I Can't Stop Loving You)
TTITLE13=Soul Medley II (Sittin' At The Dock Of The Bay>Fafafafafa>Sta
TTITLE13=nd By Me>Spanish Harlem)
TTITLE14=A Rose Is Just A Rose
TTITLE15=Rock 'n' Roll Medley (Long Tall Sally>Lucille>Shake Rattle An
TTITLE15=d Roll>Tutti Frutti)
EXTD=
EXTT0=
EXTT1=
EXTT2=
EXTT3=
EXTT4=
EXTT5=
EXTT6=
EXTT7=
EXTT8=
EXTT9=
EXTT10=
EXTT11=
EXTT12=
EXTT13=
EXTT14=
EXTT15=
PLAYORDER=
